<?xml version="1.0" encoding="utf-8"?>
<!-- Generator: Adobe Illustrator 16.0.0, SVG Export Plug-In . SVG Version: 6.00 Build 0)  -->
<!DOCTYPE svg PUBLIC "-//W3C//DTD SVG 1.1//EN" "http://www.w3.org/Graphics/SVG/1.1/DTD/svg11.dtd">
<svg version="1.1" id="레이어_1" xmlns="http://www.w3.org/2000/svg" xmlns:xlink="http://www.w3.org/1999/xlink" x="0px"
	 y="0px" width="133px" height="218.667px" viewBox="0 0 133 218.667" enable-background="new 0 0 133 218.667"
	 xml:space="preserve">
<path fill="#222222" stroke="#222222" stroke-width="6" stroke-miterlimit="10" d="M17.397,109.317l106.594-90.881
	c0.776-0.666,1.224-1.606,1.224-2.58c0-0.975-0.445-1.917-1.228-2.587c-1.453-1.234-3.919-1.232-5.361,0.002L9.01,106.743
	c-0.79,0.681-1.225,1.595-1.225,2.574c0,0.979,0.435,1.893,1.231,2.579l109.622,93.477c0.736,0.612,1.68,0.95,2.656,0.95
	c0.995,0,1.947-0.338,2.698-0.964c0.776-0.666,1.222-1.607,1.222-2.582c0-0.974-0.447-1.914-1.227-2.581L17.397,109.317z"/>
</svg>
