<?xml version="1.0" encoding="utf-8"?>
<!-- Generator: Adobe Illustrator 16.0.0, SVG Export Plug-In . SVG Version: 6.00 Build 0)  -->
<!DOCTYPE svg PUBLIC "-//W3C//DTD SVG 1.1//EN" "http://www.w3.org/Graphics/SVG/1.1/DTD/svg11.dtd">
<svg version="1.1" id="Capa_1" xmlns="http://www.w3.org/2000/svg" xmlns:xlink="http://www.w3.org/1999/xlink" x="0px" y="0px"
	 width="1114px" height="1077.5px" viewBox="404.5 2.5 1114 1077.5" enable-background="new 404.5 2.5 1114 1077.5"
	 xml:space="preserve">
<g>
	<g>
		<g>
			<path fill="#FFFFFF" d="M764.516,840.042c-62.271,0-112.75,50.481-112.75,112.75c0,62.271,50.48,112.751,112.75,112.751
				c62.271,0,112.75-50.481,112.75-112.751C877.268,890.524,826.788,840.042,764.516,840.042z M764.516,1015.434
				c-34.595,0-62.639-28.044-62.639-62.639s28.044-62.639,62.639-62.639s62.638,28.044,62.638,62.639
				C827.157,987.39,799.111,1015.434,764.516,1015.434z"/>
			<path fill="#FFFFFF" d="M1240.577,840.042c-62.271,0-112.75,50.481-112.75,112.75c0,62.271,50.481,112.751,112.75,112.751
				s112.75-50.481,112.75-112.751C1353.327,890.524,1302.848,840.042,1240.577,840.042z M1240.577,1015.434
				c-34.595,0-62.639-28.044-62.639-62.639s28.044-62.639,62.639-62.639s62.639,28.044,62.639,62.639
				C1303.218,987.39,1275.172,1015.434,1240.577,1015.434z"/>
			<path fill="#FFFFFF" d="M1494.892,182.33c-5.218-5.7-12.356-9.268-20.044-10.023l-815.564-11.274l-22.551-68.904
				c-15.886-46.062-59.02-77.158-107.74-77.674h-83.937C431.218,14.454,420,25.672,420,39.51c0,13.839,11.218,25.057,25.057,25.057
				h83.937c27.242,0.602,51.231,18.095,60.135,43.848l159.104,479.818l-12.527,28.813c-13.973,36.031-9.776,76.585,11.275,108.992
				c20.85,31.83,55.927,51.474,93.96,52.618h487.336c13.838,0,25.056-11.218,25.056-25.057c0-13.838-11.218-25.056-25.056-25.056
				H840.937c-21.478-0.537-41.248-11.836-52.617-30.067c-11.241-18.009-13.551-40.193-6.264-60.135l10.023-22.55l527.425-55.124
				c57.934-6.381,105.59-48.517,119.016-105.234l60.135-251.811C1501.365,196.372,1499.926,188.217,1494.892,182.33z
				 M1389.66,444.161c-8.134,36.511-39.131,63.441-76.419,66.398L792.08,564.429L675.57,211.144l767.959,11.275L1389.66,444.161z"/>
		</g>
	</g>
</g>
</svg>
