<?xml version="1.0" encoding="utf-8"?>
<!-- Generator: Adobe Illustrator 16.0.0, SVG Export Plug-In . SVG Version: 6.00 Build 0)  -->
<!DOCTYPE svg PUBLIC "-//W3C//DTD SVG 1.1//EN" "http://www.w3.org/Graphics/SVG/1.1/DTD/svg11.dtd">
<svg version="1.1" id="Capa_1" xmlns="http://www.w3.org/2000/svg" xmlns:xlink="http://www.w3.org/1999/xlink" x="0px" y="0px"
	 width="1153.029px" height="1115.25px" viewBox="0 0 1153.029 1115.25" enable-background="new 0 0 1153.029 1115.25"
	 xml:space="preserve">
<g>
	<g>
		<g>
			<path fill="#3A3123" stroke="#3A3123" stroke-width="20" stroke-miterlimit="10" d="M381.028,857.668
				c-62.271,0-112.75,50.481-112.75,112.75c0,62.271,50.48,112.751,112.75,112.751c62.271,0,112.75-50.48,112.75-112.751
				C493.78,908.15,443.302,857.668,381.028,857.668z M381.028,1033.06c-34.595,0-62.639-28.044-62.639-62.639
				s28.044-62.639,62.639-62.639c34.597,0,62.64,28.044,62.64,62.639C443.671,1005.016,415.625,1033.06,381.028,1033.06z"/>
			<path fill="#3A3123" stroke="#3A3123" stroke-width="20" stroke-miterlimit="10" d="M857.091,857.668
				c-62.271,0-112.75,50.481-112.75,112.75c0,62.271,50.479,112.751,112.75,112.751c62.269,0,112.75-50.48,112.75-112.751
				C969.841,908.15,919.361,857.668,857.091,857.668z M857.091,1033.06c-34.596,0-62.641-28.044-62.641-62.639
				s28.045-62.639,62.641-62.639c34.595,0,62.639,28.044,62.639,62.639C919.731,1005.016,891.686,1033.06,857.091,1033.06z"/>
			<path fill="#3A3123" stroke="#3A3123" stroke-width="20" stroke-miterlimit="10" d="M1111.405,199.956
				c-5.218-5.7-12.354-9.268-20.044-10.023l-815.563-11.274l-22.551-68.904c-15.887-46.062-59.021-77.158-107.74-77.674H61.569
				C47.73,32.08,36.513,43.298,36.513,57.136c0,13.839,11.218,25.057,25.057,25.057h83.938c27.242,0.602,51.23,18.095,60.135,43.848
				l159.104,479.818l-12.527,28.813c-13.973,36.031-9.776,76.585,11.275,108.992c20.85,31.83,55.927,51.474,93.96,52.618h487.336
				c13.838,0,25.056-11.219,25.056-25.059c0-13.838-11.218-25.056-25.056-25.056H457.45c-21.479-0.537-41.248-11.836-52.616-30.067
				c-11.241-18.009-13.553-40.191-6.266-60.135l10.023-22.55l527.425-55.124c57.934-6.381,105.59-48.518,119.016-105.234
				l60.137-251.811C1117.879,213.998,1116.439,205.843,1111.405,199.956z M1006.174,461.787
				c-8.134,36.511-39.131,63.439-76.419,66.396l-521.162,53.87l-116.51-353.285l767.959,11.275L1006.174,461.787z"/>
		</g>
	</g>
</g>
</svg>
