<?xml version="1.0" encoding="utf-8"?>
<!-- Generator: Adobe Illustrator 16.0.0, SVG Export Plug-In . SVG Version: 6.00 Build 0)  -->
<!DOCTYPE svg PUBLIC "-//W3C//DTD SVG 1.1//EN" "http://www.w3.org/Graphics/SVG/1.1/DTD/svg11.dtd">
<svg version="1.1" id="Capa_1" xmlns="http://www.w3.org/2000/svg" xmlns:xlink="http://www.w3.org/1999/xlink" x="0px" y="0px"
	 width="1114px" height="1077.5px" viewBox="0 0 1114 1077.5" enable-background="new 0 0 1114 1077.5" xml:space="preserve">
<g>
	<g>
		<g>
			<path fill="#FFFFFF" stroke="#FFFFFF" stroke-width="20" stroke-miterlimit="10" d="M361.515,838.792
				c-62.271,0-112.75,50.481-112.75,112.75c0,62.271,50.479,112.752,112.75,112.752s112.75-50.481,112.75-112.752
				C474.267,889.275,423.787,838.792,361.515,838.792z M361.515,1014.185c-34.595,0-62.64-28.044-62.64-62.639
				c0-34.596,28.045-62.64,62.64-62.64s62.638,28.044,62.638,62.64C424.156,986.141,396.11,1014.185,361.515,1014.185z"/>
			<path fill="#FFFFFF" stroke="#FFFFFF" stroke-width="20" stroke-miterlimit="10" d="M837.576,838.792
				c-62.271,0-112.75,50.481-112.75,112.75c0,62.271,50.48,112.752,112.75,112.752s112.75-50.481,112.75-112.752
				C950.326,889.275,899.847,838.792,837.576,838.792z M837.576,1014.185c-34.596,0-62.639-28.044-62.639-62.639
				c0-34.596,28.043-62.64,62.639-62.64s62.639,28.044,62.639,62.64C900.217,986.141,872.172,1014.185,837.576,1014.185z"/>
			<path fill="#FFFFFF" stroke="#FFFFFF" stroke-width="20" stroke-miterlimit="10" d="M1091.89,181.081
				c-5.217-5.7-12.355-9.269-20.043-10.023l-815.565-11.273L233.732,90.88c-15.886-46.063-59.021-77.158-107.74-77.674H42.055
				c-13.838-0.001-25.057,11.217-25.057,25.055c0,13.839,11.219,25.057,25.058,25.057h83.937
				c27.242,0.603,51.231,18.096,60.136,43.849l159.104,479.817l-12.526,28.813c-13.974,36.03-9.776,76.585,11.274,108.991
				c20.851,31.83,55.927,51.475,93.96,52.618h487.335c13.838,0,25.057-11.218,25.057-25.057c0-13.838-11.219-25.056-25.057-25.056
				H437.936c-21.479-0.537-41.248-11.837-52.617-30.067c-11.241-18.009-13.551-40.193-6.264-60.135l10.023-22.551l527.425-55.124
				c57.934-6.381,105.59-48.517,119.016-105.233l60.135-251.811C1098.363,195.123,1096.926,186.968,1091.89,181.081z
				 M986.658,442.911c-8.133,36.512-39.131,63.441-76.418,66.398l-521.162,53.87l-116.51-353.285l767.958,11.275L986.658,442.911z"
				/>
		</g>
	</g>
</g>
</svg>
