<?xml version="1.0" standalone="no"?>
<!DOCTYPE svg PUBLIC "-//W3C//DTD SVG 20010904//EN"
 "http://www.w3.org/TR/2001/REC-SVG-20010904/DTD/svg10.dtd">
<svg version="1.0" xmlns="http://www.w3.org/2000/svg"
 width="260.000000pt" height="260.000000pt" viewBox="0 0 260.000000 260.000000"
 preserveAspectRatio="xMidYMid meet">
<metadata>
Created by potrace 1.11, written by Peter Selinger 2001-2013
</metadata>
<g transform="translate(0.000000,260.000000) scale(0.100000,-0.100000)"
fill="#000000" stroke="none">
<path d="M1108 2040 c-234 -37 -459 -225 -551 -459 -83 -214 -53 -502 73 -686
78 -114 200 -220 307 -266 380 -163 801 29 950 431 27 71 28 84 28 245 -1 152
-3 177 -24 235 -86 242 -279 430 -495 485 -75 19 -216 26 -288 15z m279 -288
c334 -169 332 -724 -2 -888 -55 -26 -69 -29 -165 -29 -93 0 -111 3 -163 27
-134 63 -230 203 -250 365 -32 266 88 480 313 554 14 5 66 7 115 5 77 -3 99
-8 152 -34z"/>
<path d="M1960 901 c-5 -11 -10 -69 -10 -130 0 -140 1 -141 118 -141 48 0 94
5 102 10 21 13 22 239 1 263 -11 14 -32 17 -107 17 -82 0 -95 -2 -104 -19z"/>
</g>
</svg>
