<?xml version="1.0" standalone="no"?>
<!DOCTYPE svg PUBLIC "-//W3C//DTD SVG 20010904//EN"
 "http://www.w3.org/TR/2001/REC-SVG-20010904/DTD/svg10.dtd">
<svg version="1.0" xmlns="http://www.w3.org/2000/svg"
 width="392.000000pt" height="392.000000pt" viewBox="0 0 392.000000 392.000000"
 preserveAspectRatio="xMidYMid meet">
<metadata>
Created by potrace 1.11, written by Peter Selinger 2001-2013
</metadata>
<g transform="translate(0.000000,392.000000) scale(0.100000,-0.100000)"
fill="#000000" stroke="none">
<path d="M1809 3866 c-2 -2 -31 -6 -64 -10 -435 -46 -875 -293 -1173 -658
-109 -135 -156 -209 -247 -393 -133 -269 -195 -533 -197 -840 -1 -92 8 -226
18 -278 2 -12 6 -39 10 -62 3 -22 18 -89 34 -150 78 -300 219 -572 414 -798
298 -345 693 -559 1131 -612 107 -14 381 -13 470 1 41 6 182 33 200 38 6 2 24
6 40 10 137 35 369 141 505 232 385 256 668 653 790 1109 19 70 23 92 36 170
3 22 7 42 9 45 6 9 17 183 18 270 6 870 -596 1680 -1397 1880 -139 35 -257 48
-432 48 -89 1 -163 0 -165 -2z m321 -660 c152 -23 328 -97 457 -195 294 -222
475 -619 476 -1046 0 -84 -8 -201 -18 -235 -2 -8 -7 -33 -10 -55 -7 -44 -7
-41 -24 -105 -125 -468 -470 -803 -886 -858 -93 -13 -306 -7 -380 11 -331 78
-584 287 -735 610 -44 95 -75 177 -84 223 -2 10 -11 48 -19 84 -26 109 -32
178 -31 340 1 180 17 277 75 453 100 306 280 529 539 670 142 77 310 115 500
111 52 -1 115 -5 140 -8z"/>
</g>
</svg>
