<?xml version="1.0" standalone="no"?>
<!DOCTYPE svg PUBLIC "-//W3C//DTD SVG 20010904//EN"
 "http://www.w3.org/TR/2001/REC-SVG-20010904/DTD/svg10.dtd">
<svg version="1.0" xmlns="http://www.w3.org/2000/svg"
 width="369.000000pt" height="369.000000pt" viewBox="0 0 369.000000 369.000000"
 preserveAspectRatio="xMidYMid meet">
<metadata>
Created by potrace 1.11, written by Peter Selinger 2001-2013
</metadata>
<g transform="translate(0.000000,369.000000) scale(0.100000,-0.100000)"
fill="#000000" stroke="none">
<path d="M1692 3530 c-290 -30 -554 -134 -792 -311 -460 -340 -730 -938 -680
-1504 54 -619 400 -1141 935 -1407 421 -211 954 -207 1388 8 463 230 784 653
899 1184 19 91 22 135 23 330 0 199 -3 238 -23 334 -77 360 -243 669 -492 916
-224 223 -530 383 -827 435 -106 19 -325 26 -431 15z m367 -595 c163 -39 299
-115 421 -235 163 -159 262 -351 317 -610 22 -105 24 -360 4 -470 -29 -162
-101 -346 -186 -475 -98 -148 -278 -297 -428 -355 -125 -49 -222 -63 -381 -57
-265 10 -447 94 -632 290 -349 371 -400 1014 -117 1491 65 109 211 255 319
318 90 53 226 102 324 117 85 13 278 5 359 -14z"/>
</g>
</svg>
