<?xml version="1.0" encoding="utf-8"?>
<!-- Generator: Adobe Illustrator 16.0.0, SVG Export Plug-In . SVG Version: 6.00 Build 0)  -->
<!DOCTYPE svg PUBLIC "-//W3C//DTD SVG 1.1//EN" "http://www.w3.org/Graphics/SVG/1.1/DTD/svg11.dtd">
<svg version="1.1" id="Layer_1" xmlns="http://www.w3.org/2000/svg" xmlns:xlink="http://www.w3.org/1999/xlink" x="0px" y="0px"
	 width="180.168px" height="432.93px" viewBox="0 0 180.168 432.93" enable-background="new 0 0 180.168 432.93"
	 xml:space="preserve">
<g>
	<g>
		<path fill="#CCCBA6" d="M94.883,0h-9.598C38.252,0,0,42.148,0,93.97v105.426c0,51.811,38.252,93.97,85.285,93.97h9.598
			c47.033,0,85.285-42.159,85.285-93.97V93.97C180.168,42.148,141.916,0,94.883,0z M163.538,199.396
			c0,41.772-30.747,75.644-68.655,75.644h-9.598c-37.919,0-68.655-33.871-68.655-75.644V93.97c0-41.772,30.736-75.633,68.655-75.633
			h9.598c37.908,0,68.655,33.86,68.655,75.633V199.396z"/>
		<g>
			<path fill="#CCCBA6" d="M90.084,432.93c-1.578,0-3.156-0.601-4.369-1.814l-70.781-70.78c-2.415-2.405-2.415-6.324,0-8.729
				c2.416-2.404,6.313-2.404,8.729,0l66.422,66.422l66.422-66.422c2.416-2.404,6.313-2.404,8.729,0c2.415,2.404,2.415,6.313,0,8.729
				l-70.781,70.78C93.24,432.329,91.662,432.93,90.084,432.93z"/>
		</g>
		<path fill="#CCCBA6" d="M99.08,81.28c0,4.977-4.025,8.996-8.996,8.996l0,0c-4.971,0-8.996-4.02-8.996-8.996V61.859
			c0-4.966,4.025-8.991,8.996-8.991l0,0c4.971,0,8.996,4.025,8.996,8.991V81.28z"/>
	</g>
</g>
</svg>
