<?xml version="1.0" encoding="utf-8"?>
<!-- Generator: Adobe Illustrator 16.0.0, SVG Export Plug-In . SVG Version: 6.00 Build 0)  -->
<!DOCTYPE svg PUBLIC "-//W3C//DTD SVG 1.1//EN" "http://www.w3.org/Graphics/SVG/1.1/DTD/svg11.dtd">
<svg version="1.1" id="Layer_1" xmlns="http://www.w3.org/2000/svg" xmlns:xlink="http://www.w3.org/1999/xlink" x="0px" y="0px"
	 width="130.197px" height="171.529px" viewBox="0 0 130.197 171.529" enable-background="new 0 0 130.197 171.529"
	 xml:space="preserve">
<g>
	<g>
		<path fill="#FFFFFF" d="M122.907,72.402c-1.865,0-3.73-0.712-5.154-2.136L65.099,17.599L12.446,70.266
			c-2.848,2.848-7.461,2.848-10.309,0s-2.848-7.461,0-10.309L59.945,2.136c2.734-2.734,7.575-2.734,10.309,0l57.808,57.822
			c2.848,2.848,2.848,7.461,0,10.309C126.637,71.69,124.772,72.402,122.907,72.402z"/>
	</g>
	<g>
		<path fill="#FFFFFF" d="M65.099,171.529c-4.029,0-7.29-3.261-7.29-7.29V7.29c0-4.029,3.261-7.29,7.29-7.29
			c4.03,0,7.29,3.261,7.29,7.29v156.949C72.389,168.269,69.129,171.529,65.099,171.529z"/>
	</g>
</g>
</svg>
