<?xml version="1.0" encoding="utf-8"?>
<!-- Generator: Adobe Illustrator 16.0.0, SVG Export Plug-In . SVG Version: 6.00 Build 0)  -->
<!DOCTYPE svg PUBLIC "-//W3C//DTD SVG 1.1//EN" "http://www.w3.org/Graphics/SVG/1.1/DTD/svg11.dtd">
<svg version="1.1" id="Layer_1" xmlns="http://www.w3.org/2000/svg" xmlns:xlink="http://www.w3.org/1999/xlink" x="0px" y="0px"
	 width="258px" height="258px" viewBox="0 0 258 258" enable-background="new 0 0 258 258" xml:space="preserve">
<circle fill="#D39D67" cx="129" cy="129" r="129"/>
<g>
	<g>
		<path fill="#FFFFFF" d="M156.658,162.717c-0.623,0-1.246-0.238-1.721-0.713c-0.951-0.951-0.951-2.491,0-3.442l27.995-27.995
			l-27.995-27.994c-0.951-0.951-0.951-2.491,0-3.442s2.491-0.951,3.442,0l29.716,29.715c0.456,0.456,0.713,1.074,0.713,1.721
			s-0.257,1.265-0.713,1.721l-29.716,29.716C157.903,162.479,157.281,162.717,156.658,162.717z"/>
	</g>
	<g>
		<path fill="#FFFFFF" d="M186.374,133H105.7c-1.344,0-2.434-1.089-2.434-2.434c0-1.344,1.09-2.434,2.434-2.434h80.674
			c1.345,0,2.434,1.09,2.434,2.434C188.808,131.912,187.719,133,186.374,133z"/>
	</g>
</g>
</svg>
